<?xml version="1.0" encoding="utf-8"?>
<!-- Generator: Adobe Illustrator 22.1.0, SVG Export Plug-In . SVG Version: 6.00 Build 0)  -->
<svg version="1.1" id="Layer_1" xmlns="http://www.w3.org/2000/svg" xmlns:xlink="http://www.w3.org/1999/xlink" x="0px" y="0px"
	 viewBox="0 0 304 339" style="enable-background:new 0 0 304 339;" xml:space="preserve">
<style type="text/css">
	.st0{fill:#B08642;}
	.st1{fill:#ED3A3D;}
</style>
<g>
	<path class="st0" d="M18.2,48.8l11.3-23.1h2.4l11.4,23.1h-3.1l-3.1-6.2H24.3l-3.1,6.2H18.2z M25.6,39.8h10.2l-5.1-10.2L25.6,39.8z"
		/>
	<path class="st0" d="M51,48.8V25.7h13.2c2.3,0,4,0.6,5.3,1.7s1.9,2.7,1.9,4.7c0,1.7-0.5,3.1-1.5,4.3c-1,1.2-2.3,1.9-4,2.2l5.8,10.1
		h-3.2l-5.8-10.1h-8.9v10.1L51,48.8L51,48.8z M53.8,36H64c1.4,0,2.5-0.3,3.3-1c0.7-0.6,1.1-1.6,1.1-2.8c0-1.2-0.4-2.2-1.1-2.8
		c-0.7-0.7-1.8-1-3.1-1H53.9V36H53.8z"/>
	<path class="st0" d="M77.4,48.8L93,28.4H78.7v-2.7h19.5L83,46.1h15.2v2.7H77.4z"/>
	<path class="st0" d="M107,48.8V25.7h13.7c2.3,0,4,0.5,5.2,1.5s1.7,2.4,1.7,4.3c0,0.9-0.2,1.7-0.5,2.5s-0.9,1.3-1.5,1.8
		c1.2,0.7,2.2,1.6,2.8,2.6s0.9,2.2,0.9,3.6c0,2.1-0.7,3.8-2.1,5.1c-1.4,1.3-3.3,1.9-5.7,1.9H107V48.8z M109.9,34.8h11
		c1.2,0,2.1-0.3,2.8-0.8c0.6-0.5,1-1.3,1-2.4s-0.3-1.9-0.9-2.4s-1.6-0.8-2.8-0.8h-11L109.9,34.8L109.9,34.8z M109.9,46.1H122
		c1.3,0,2.3-0.4,3.1-1.2c0.8-0.8,1.1-1.8,1.1-3.2c0-1.3-0.4-2.4-1.1-3.2c-0.8-0.8-1.8-1.2-3.1-1.2h-12.1V46.1z"/>
	<path class="st0" d="M139.3,48.8V25.7h18.2v2.7h-15.3v6.8h9.2v2.7h-9.2v8.3h16.2v2.7h-19.1V48.8z"/>
	<path class="st0" d="M166.8,48.8V25.7H180c2.3,0,4,0.6,5.3,1.7s1.9,2.7,1.9,4.7c0,1.7-0.5,3.1-1.5,4.3c-1,1.2-2.3,1.9-4,2.2
		l5.8,10.1h-3.2l-5.8-10.1h-8.9v10.1L166.8,48.8L166.8,48.8z M169.7,36h10.2c1.4,0,2.5-0.3,3.3-1c0.7-0.6,1.1-1.6,1.1-2.8
		c0-1.2-0.4-2.2-1.1-2.8c-0.7-0.7-1.8-1-3.1-1h-10.3V36H169.7z"/>
	<path class="st0" d="M214.5,42.5v-3.4h-6.3v-2.7h9.2v6.9c-1.1,1.9-2.6,3.4-4.4,4.4c-1.8,1-3.8,1.5-6.1,1.5c-3.5,0-6.3-1.1-8.6-3.4
		s-3.4-5.2-3.4-8.7s1.1-6.4,3.4-8.7c2.3-2.3,5.1-3.4,8.6-3.4c2.1,0,4.1,0.5,5.8,1.4c1.8,0.9,3.2,2.3,4.3,4l-2.4,1.7
		c-0.7-1.4-1.8-2.5-3.1-3.2s-2.9-1.2-4.6-1.2c-2.6,0-4.7,0.9-6.4,2.7c-1.7,1.8-2.6,4-2.6,6.7s0.9,5,2.6,6.7c1.7,1.8,3.8,2.7,6.4,2.7
		c1.6,0,3.1-0.3,4.3-1S213.5,43.9,214.5,42.5z"/>
	<path class="st0" d="M227.5,48.8V25.7h18.2v2.7h-15.3v6.8h9.2v2.7h-9.2v8.3h16.2v2.7h-19.1V48.8z"/>
	<path class="st0" d="M255.1,48.8V25.7h13.2c2.3,0,4,0.6,5.3,1.7s1.9,2.7,1.9,4.7c0,1.7-0.5,3.1-1.5,4.3c-1,1.2-2.3,1.9-4,2.2
		l5.8,10.1h-3.2l-5.8-10.1h-8.9v10.1L255.1,48.8L255.1,48.8z M257.9,36h10.2c1.4,0,2.5-0.3,3.3-1c0.7-0.6,1.1-1.6,1.1-2.8
		c0-1.2-0.4-2.2-1.1-2.8c-0.7-0.7-1.8-1-3.1-1H258V36H257.9z"/>
</g>
<g>
	<path class="st0" d="M65.4,301.3h0.5c2,5.8,3.8,7.1,6.8,7.1c3.5,0,5.4-2.5,5.4-5.2c0-2.1-0.9-3.9-4.9-5.8c-3.3-1.6-5-2.8-5-5.8
		c0-3.9,3.6-7.4,8.6-7.4c2.4,0,4,0.9,5.1,1.5l2-1.7h0.5l-1.8,7.2h-0.5c-1.8-5.3-3.1-6.4-6-6.4c-2.8,0-5,2.3-5,5.1
		c0,2.6,2.1,3.7,4.9,5.1c3.1,1.6,4.8,3.2,4.8,6c0,3.9-2.6,8-8.8,8c-2,0-4.7-0.8-6.1-1.6l-2,1.7h-0.5L65.4,301.3z"/>
	<path class="st0" d="M92.1,308.1c-0.3,0.1-2.2,0.8-3.5,0.8c-1.7,0-2.7-0.8-2.7-2.3c0-0.4,0.1-1,0.3-1.6l3.1-9.9
		c0.3-1.1-0.5-1.5-2.6-1.7V293l6.2-0.2L89,305c-0.2,0.7-0.3,1.2-0.3,1.6c0,1,0.8,1.3,3.4,1.2L92.1,308.1L92.1,308.1z M93.2,284.7
		c0.8,0,1.4,0.5,1.4,1.5c0,1.3-1,2.7-2.2,2.7c-0.8,0-1.4-0.5-1.4-1.6C91,286,92,284.7,93.2,284.7z"/>
	<path class="st0" d="M100.1,295.2c0.3-1.2-0.1-1.7-2.2-1.8V293l5.5-0.2l-1.1,3.3l0.1,0.1c2.1-2,4.6-3.5,6.5-3.5c2,0,3.1,1.1,3.1,3
		c0,0.6-0.1,1.4-0.4,2.3l-2.4,7.4c-0.2,0.7-0.3,1.2-0.3,1.5c0,1,0.8,1.2,3,1v0.3c-0.3,0.1-1.6,0.6-2.9,0.6c-1.7,0-2.7-0.5-2.7-2
		c0-0.4,0.1-1,0.3-1.6l2.3-6.9c0.2-0.8,0.4-1.4,0.4-2c0-1.1-0.6-1.8-2-1.8c-1.5,0-3.2,1-5,2.4l-2.8,11.6h-3.1l1.7-5.5L100.1,295.2z"
		/>
	<path class="st0" d="M129.5,295.6c0,1.2-0.7,2-1.8,2c-1,0-1.8-0.6-1.8-1.8c0-0.5,0.4-1.4,1.2-1.8c-0.4-0.5-1-0.9-2-0.9
		c-3.5,0-5.9,5.9-5.9,9.7c0,3.1,1.3,5,4,5c1.8,0,3.5-1.2,4.7-2.8l0.4,0.4c-1.7,2.4-3.7,3.5-6.1,3.5c-3.3,0-6-2.4-6-6.3
		c0-4.9,4.1-9.9,8.7-9.9C127.8,292.6,129.5,293.9,129.5,295.6z"/>
	<path class="st0" d="M135.4,301c-0.1,0.7-0.2,1.4-0.2,2.1c0,3.1,0.9,4.7,3.6,4.7c1.8,0,3.6-1.2,4.9-2.8l0.4,0.4
		c-1.9,2.4-4,3.5-6.4,3.5c-2.7,0-5.6-1.5-5.6-5.7c0-5.1,4.2-10.5,9.4-10.5c2.9,0,4.3,1.4,4.3,3.4C145.9,298.7,142.6,301,135.4,301z
		 M135.5,300.5c6.7-0.2,7.8-2.9,7.8-5.2c0-1.4-0.8-2-1.8-2C138.9,293.3,136.3,296.7,135.5,300.5z"/>
	<path class="st0" d="M155.1,308.1c3.6-0.2,4.6-0.4,5-2.1l4.3-16.3c0.6-2.1,0.3-2.8-3.7-2.9l0.1-0.4l7.9-0.6l-5.5,20.3
		c-0.4,1.6,0.2,1.9,3.9,2.1l-0.1,0.4h-12L155.1,308.1z"/>
	<path class="st0" d="M191,292.7c0,9.1-7.4,15.3-18.3,16.4v-0.5c9.6-1.9,12.9-6.7,14.2-11.3l-0.1-0.1c-1.7,2.5-3.9,3.7-6.3,3.7
		c-3.8,0-5.7-2.6-5.7-6c0-4.5,4-9.6,9.7-9.6C188.7,285.5,191,288.8,191,292.7z M178,295.9c0,3.1,1.2,4.3,3.2,4.3
		c2.9,0,6.7-3.4,6.7-9.2c0-2.7-1.1-4.9-3.6-4.9C180.3,286.1,178,291.6,178,295.9z"/>
	<path class="st0" d="M191.9,306.5l8.9-6.5c4.6-3.3,6.1-6.1,6.1-9.5c0-2.7-1.1-4.4-3.6-4.4c-1.8,0-3.6,1.1-4.5,2.5
		c1.2,0.4,1.8,1.3,1.8,2.4c0,1.2-0.9,2.3-2.2,2.3s-2.2-0.9-2.2-2.4c0-2.9,3.4-5.5,7.4-5.5c4.1,0,6.7,2.2,6.7,5.1
		c0,3.1-2.2,5.3-10.8,11.3l-5.5,3.9v0.1h8.2c2.7,0,3.5-0.6,5.4-3.7h0.4l-1.8,6.3h-14.8L191.9,306.5z"/>
	<path class="st0" d="M212,306.5l8.9-6.5c4.6-3.3,6.1-6.1,6.1-9.5c0-2.7-1.1-4.4-3.6-4.4c-1.8,0-3.6,1.1-4.5,2.5
		c1.2,0.4,1.8,1.3,1.8,2.4c0,1.2-0.9,2.3-2.2,2.3s-2.2-0.9-2.2-2.4c0-2.9,3.4-5.5,7.4-5.5c4.1,0,6.7,2.2,6.7,5.1
		c0,3.1-2.2,5.3-10.8,11.3l-5.5,3.9v0.1h8.2c2.7,0,3.5-0.6,5.4-3.7h0.4l-1.8,6.3h-14.8L212,306.5z"/>
</g>
<g>
	<g>
		<path class="st1" d="M121.5,93.3l25.8,46.8l26-46.8C156.3,94.3,138.5,94.3,121.5,93.3"/>
		<path class="st0" d="M197.4,221.3c-1.1,0.7-2.3,1.3-3.4,1.9l-45.2-81.9l26.4-47.7c11-0.8,21.6-1.9,31.4-3.6
			c1.3,1.3,5.3,7.4,8.8,13.3c-4.2,2.7-18.8,13.7-17.3,37.5c1.5,23.7,21,31.1,26.2,32.7C222.7,179.9,214.3,211.1,197.4,221.3
			 M184.5,227.9c-2.4,1.1-4.9,2.2-7.3,3.3V198l7.3,13.2V227.9z M191.8,224.4c-1.5,0.8-3.2,1.6-4.8,2.4v-11L191.8,224.4z
			 M167.4,235.5v-55.2l7.4,13.4c0,0.1-0.1,0.1-0.1,0.1v38.5c-0.3,0.1-0.5,0.2-0.8,0.3C171.7,233.6,169.5,234.5,167.4,235.5
			 M164.9,175.8v60.8c-2.4,1.1-4.7,2.2-6.8,3.3v-76.4L164.9,175.8z M148.4,246.8v-101l7.4,13.4c0,0.1-0.1,0.1-0.1,0.2v81.9
			C152.6,243.1,150.1,244.9,148.4,246.8 M139.1,241.6v-82.9l6.8-12.2v100.4C144.3,245,142,243.3,139.1,241.6 M129.9,175.3l6.8-12.2
			v77c-2.1-1.1-4.4-2.2-6.8-3.3V175.3z M120.1,193l7.3-13.2v55.9c-2.4-1-4.8-2.1-7.3-3.2V193z M107.8,227.1
			c-1.8-0.8-3.5-1.7-5.2-2.6l5.2-9.4V227.1z M110.3,210.6l7.3-13.2v34c-2.5-1.1-4.9-2.1-7.3-3.2V210.6z M69.7,173.5
			c5.1-1.5,24.7-9,26.2-32.7s-13-34.8-17.3-37.5c3.6-5.9,7.6-12,8.9-13.3c9.9,1.7,20.9,2.9,32.1,3.6l26.3,47.6l-45.5,82
			c-1.3-0.7-2.6-1.4-3.8-2.1C79.7,211.1,71.3,179.9,69.7,173.5 M147.3,138.8l-24.8-44.9c16.4,1,33.4,1,49.7-0.1L147.3,138.8z
			 M226.8,171.9c-0.2-0.3-0.5-0.5-0.8-0.5c-0.2-0.1-23.8-5.4-25.4-30.7c-1.6-25.9,16.3-35.4,17.1-35.8c0.3-0.2,0.5-0.4,0.6-0.8
			c0.1-0.3,0.1-0.7-0.1-1c-9.6-16-10.7-15.8-11.6-15.6c-35.6,6.2-83.5,6.2-119.1,0c-0.9-0.2-2.1-0.4-11.6,15.6
			c-0.2,0.3-0.2,0.7-0.1,1c0.1,0.3,0.3,0.6,0.6,0.8c0.2,0.1,18.7,9.7,17.1,35.8c-1.6,25.2-24.5,30.5-25.4,30.7
			c-0.3,0.1-0.6,0.3-0.8,0.5c-0.2,0.3-0.2,0.6-0.2,0.9c0.3,1.6,8.6,38.7,28.3,50.5c1.6,0.9,3.2,1.8,4.9,2.7l0,0c0,0,0,0,0.1,0
			c5.9,3.1,12.4,5.9,18.8,8.6c13.6,5.8,26.5,11.3,26.7,17.4c0,0.1,0.1,0.1,0.1,0.2v8.2c0,0.1,0.1,0.1,0.1,0.1c0,0.1-0.1,0.1-0.1,0.1
			c0,0.9-0.7,2.2-1.6,2.9c-0.3,0.2-0.7,0.4-0.8,0.3c-0.7-0.2-1.3,0.2-1.5,0.9s0.2,1.4,0.9,1.5c0.2,0.1,0.5,0.1,0.8,0.1
			c0.7,0,1.5-0.3,2.2-0.8c0.5-0.4,0.9-1,1.3-1.6c0.4,0.6,0.8,1.2,1.3,1.6c0.7,0.6,1.5,0.8,2.2,0.8c0.2,0,0.5,0,0.7-0.1
			c0.7-0.2,1-0.9,0.9-1.5c-0.2-0.7-0.9-1-1.5-0.9c-0.2,0-0.5-0.1-0.8-0.3c-0.9-0.7-1.6-2-1.6-2.9c0-0.1-0.1-0.1-0.1-0.1
			c0-0.1,0.1-0.1,0.1-0.1V252c0.6-5.8,13.2-11.2,26.6-17.1c6.5-2.8,13.1-5.7,19-8.9h0.1c0,0,0,0,0-0.1c1.5-0.8,3.1-1.7,4.5-2.5
			c19.7-11.8,27.9-49,28.3-50.5C227,172.5,227,172.2,226.8,171.9"/>
		<path class="st0" d="M182.1,82.5c0.4-0.3,0.8-0.5,1.1-0.9c0.6-0.8,0.8-1.7,0.6-2.5c-0.2-0.7-0.8-1.1-1.5-0.9s-1,0.9-0.9,1.5
			c0,0-0.1,0.3-0.4,0.6c-0.5,0.5-1.2,0.9-1.8,0.9c-0.1,0-0.2,0.1-0.4,0.1c-20.5,2.2-43.9,2.2-64.3-0.2c-0.5,0-1.3-0.4-1.7-0.9
			c-0.3-0.3-0.4-0.5-0.4-0.6c0.2-0.7-0.2-1.3-0.9-1.5s-1.3,0.2-1.5,0.9c-0.2,0.8,0,1.7,0.6,2.5c0.3,0.4,0.7,0.6,1.1,0.9
			c-0.4,0.3-0.8,0.5-1.1,0.9c-0.6,0.8-0.8,1.7-0.6,2.5c0.2,0.6,0.7,0.9,1.2,0.9c0.1,0,0.2,0,0.3,0c0.7-0.2,1-0.9,0.9-1.5
			c0,0,0.1-0.3,0.4-0.6c0.5-0.5,1.2-0.9,1.8-0.9c0.1,0,0.2-0.1,0.3-0.1c10.4,1.2,21.4,1.8,32.6,1.8c10.8,0,21.6-0.6,31.7-1.7
			c0,0,0,0,0.1,0c0.5,0,1.3,0.4,1.8,0.9c0.3,0.3,0.4,0.5,0.4,0.6c-0.2,0.7,0.2,1.3,0.9,1.5c0.1,0,0.2,0,0.3,0c0.5,0,1-0.3,1.2-0.9
			c0.2-0.8,0-1.7-0.6-2.5C182.9,83,182.5,82.7,182.1,82.5"/>
	</g>
</g>
</svg>
