<?xml version="1.0" encoding="utf-8"?>
<!-- Generator: Adobe Illustrator 22.1.0, SVG Export Plug-In . SVG Version: 6.00 Build 0)  -->
<svg version="1.1" id="Layer_1" xmlns="http://www.w3.org/2000/svg" xmlns:xlink="http://www.w3.org/1999/xlink" x="0px" y="0px"
	 viewBox="0 0 113.3 18.8" style="enable-background:new 0 0 113.3 18.8;" xml:space="preserve">
<style type="text/css">
	.st0{fill:#536657;}
</style>
<g>
	<path class="st0" d="M7,10.8l2-4.6v0.1l1.9,4.5H7z M12.7,12.5L12.7,12.5l-3-6.9H9.5H8.9H8.8l0,0H8.7v0.1c0,0,0.1,0,0.2,0.3L6,12.8
		l0,0c-0.2,0.5-0.5,0.7-0.5,0.7v0.1h0.7v-0.1c0,0-0.2-0.3,0-0.6l0,0L7,11.1h4.1l0.7,1.6l0,0c0.2,0.5,0,0.8,0,0.8v0.1l0,0h0.1h0.3
		h0.4h0.2h0.3h0.1l0,0h0.2v-0.1C13.3,13.4,12.8,13,12.7,12.5"/>
	<path class="st0" d="M42.9,13.3V9.2h2.2c1.8,0,2.3,0.8,2.3,2c0,1.5-0.5,2.1-2.4,2.1H42.9z M45.7,5.9L45.7,5.9
		c1.5,0,1.8,0.6,1.8,1.5c0,1.1-0.4,1.6-1.8,1.6H43V5.9H45.7z M47.1,9.2l-0.2-0.1L47.1,9c0.8-0.2,1.3-1,1.3-1.7c0-1-1.2-1.7-2.4-1.7
		h-2.9l0,0h-0.3h-0.5h-0.1h-0.1h-0.3v0.1c0,0,0.3,0.4,0.3,0.8v6.1c0,0.4-0.3,0.8-0.3,0.8v0.1h0.1h0.1H42h0.5h0.2h0.1h3.1
		c1.3,0,2.7-0.6,2.7-2.3C48.7,10,47.7,9.4,47.1,9.2"/>
	<path class="st0" d="M35.3,13.3L35.3,13.3h-3.8l4.9-7.4l-0.1-0.1h-0.5h-0.3h-4.5h-0.1V6v0.4h0.1c0,0,0.2-0.4,0.7-0.4h3.7l0,0
		l-0.1,0.1l-2.8,4.3l-2.1,3.2l0,0H36l0,0l0,0V13h-0.1C36.1,12.8,35.8,13.2,35.3,13.3"/>
	<path class="st0" d="M19.4,5.9h2.9c1.4,0,1.9,0.7,1.9,1.6c0,1.1-0.6,1.6-1.9,1.6h-2.8L19.4,5.9L19.4,5.9z M24.7,12.6L24.7,12.6
		l-2-3.4h0.1c1.2,0,2.4-0.6,2.4-1.8c0-0.1,0-0.2,0-0.2V7.1c-0.2-1-1.4-1.5-2.6-1.5h-3l0,0h-0.3h-0.5h-0.1h-0.1h-0.1v0.1
		c0,0,0.3,0.4,0.3,0.8v6c0,0.4-0.3,0.8-0.3,0.8v0.1h0.1h0.1h0.1h0.3h0.2h0.3h0.1h0.1l0,0v-0.1c0,0-0.3-0.3-0.3-0.7V9.2h2.1l2,3.4
		c0.3,0.5,0.1,0.7,0.1,0.7v0.1l0,0h0.3h0.2h0.2h0.1h0.2h0.1h0.1h0.1l0,0H25h0.2v-0.1C25.3,13.4,24.8,13,24.7,12.6"/>
	<path class="st0" d="M59.8,12.8c0,0-0.2,0.4-0.7,0.4h-3.9V9.3h2.7l0,0c0.5,0,0.6,0.4,0.6,0.4h0.1V9.3l0,0V9.1l0,0V8.7h-0.1
		c0,0-0.1,0.4-0.6,0.4l0,0h-2.7V5.9h3.7c0.5,0,0.7,0.4,0.7,0.4h0.1V5.7l0,0l0,0h-4.4H55l0,0h-0.6h-0.1h-0.1h-0.1v0.1
		c0,0,0.3,0.4,0.3,0.8v6c0,0.4-0.3,0.8-0.3,0.8v0.1h0.1h0.1h0.1H55l0,0l0,0h4.9H60v-0.2L59.8,12.8L59.8,12.8z"/>
	<path class="st0" d="M95.4,12.8c0,0-0.2,0.4-0.7,0.4h-3.9V9.3h2.7l0,0c0.5,0,0.6,0.4,0.6,0.4h0.1V9.3l0,0V9.1l0,0V8.7h-0.1
		c0,0-0.1,0.4-0.6,0.4l0,0h-2.7V5.9h3.7c0.5,0,0.7,0.4,0.7,0.4h0.1V5.7l0,0l0,0h-4.5h-0.3l0,0h-0.6h-0.1h-0.1h-0.1v0.1
		c0,0,0.3,0.4,0.3,0.8v6c0,0.4-0.3,0.8-0.3,0.8v0.1h0.1h0.1h0.1h0.6l0,0l0,0h4.9h0.1v-0.2L95.4,12.8L95.4,12.8z"/>
	<path class="st0" d="M84.4,9.7V9.5H82v0.2h0.5c0.2,0,0.4,0.2,0.4,0.5c0,1.9-0.2,2.6-1,3c-0.4,0.1-0.8,0.2-1.3,0.2l0,0
		c-0.1,0-0.1,0-0.2,0h-0.1h-0.1c-0.1,0-0.1,0-0.2,0c-0.1,0-0.1,0-0.2-0.1l0,0c-1.1-0.4-1.6-1.5-1.6-3.9c0-2.2,0.5-3.7,2.3-3.7
		c1.2,0,2.5,0.7,2.6,1.6h0.2l0,0V6.1h-0.1c0,0-0.5,0.2-0.9,0l0,0c-0.5-0.3-1.2-0.5-1.9-0.5c-2,0-3.4,1.7-3.4,4.1
		c0,2.2,1.6,4.1,3.5,4.1c1,0,1.9-0.3,2.5-1c0.5-0.6,0.6-1.4,0.6-2.3l0,0v-0.1v-0.1l0,0c0-0.3,0.1-0.5,0.2-0.5L84.4,9.7L84.4,9.7z"/>
</g>
<polygon class="st0" points="82.9,10.2 83.1,12.6 83.8,12.3 83.8,10.2 "/>
<g>
	<path class="st0" d="M82.4,13.2c0.7-0.4,0.9-0.8,1.4-0.8v-0.5l-0.6,0.4l-0.5,0.6L82.4,13.2z"/>
	<path class="st0" d="M66.3,5.9h2.9c1.4,0,1.9,0.7,1.9,1.6c0,1.1-0.6,1.6-1.9,1.6h-2.8L66.3,5.9L66.3,5.9z M71.4,12.6L71.4,12.6
		l-2-3.4h0.1c1.2,0,2.4-0.6,2.4-1.8c0-0.1,0-0.2,0-0.2V7.1c-0.2-1-1.4-1.5-2.6-1.5h-3l0,0H66h-0.5h-0.1h-0.1h-0.1v0.1
		c0,0,0.3,0.4,0.3,0.8v6c0,0.4-0.3,0.8-0.3,0.8v0.1h0.1h0.1h0.1h0.3H66h0.3h0.1h0.1h0.1v-0.1c0,0-0.3-0.3-0.3-0.7V9.2h2.1l2,3.4
		c0.3,0.5,0.1,0.7,0.1,0.7v0.1l0,0h0.3H71h0.2h0.1h0.2h0.1h0.1h0.1l0,0h0.1h0.2v-0.1C72.1,13.4,71.7,13,71.4,12.6"/>
	<path class="st0" d="M101.8,5.9h2.9c1.4,0,1.9,0.7,1.9,1.6c0,1.1-0.6,1.6-1.9,1.6h-2.9V5.9z M106.9,12.6L106.9,12.6l-2-3.4h0.1
		c1.2,0,2.4-0.6,2.4-1.8c0-0.1,0-0.2,0-0.2V7.1c-0.2-1-1.4-1.5-2.6-1.5h-3l0,0h-0.3H101h-0.3h-0.1h-0.1v0.1c0,0,0.3,0.4,0.3,0.8v6
		c0,0.4-0.3,0.8-0.3,0.8v0.1h0.1h0.1h0.1h0.3h0.2h0.3h0.1h0.1h0.1v-0.1c0,0-0.3-0.3-0.3-0.7V9.2h2.1l2,3.4c0.3,0.5,0.1,0.7,0.1,0.7
		v0.1l0,0h0.3h0.2h0.2h0.1h0.2h0.1h0.1h0.1l0,0h0.1h0.2v-0.1C107.6,13.4,107.1,13,106.9,12.6"/>
</g>
</svg>
