<?xml version="1.0" encoding="utf-8"?>
<!-- Generator: Adobe Illustrator 22.1.0, SVG Export Plug-In . SVG Version: 6.00 Build 0)  -->
<svg version="1.1" id="Layer_1" xmlns="http://www.w3.org/2000/svg" xmlns:xlink="http://www.w3.org/1999/xlink" x="0px" y="0px"
	 viewBox="0 0 194 237.9" style="enable-background:new 0 0 194 237.9;" xml:space="preserve">
<style type="text/css">
	.st0{fill:#B08642;}
	.st1{fill:#FFFFFF;}
	.st2{fill:#ED3A3D;}
	.st3{fill:none;stroke:#A1752B;stroke-width:0.658;stroke-linecap:round;stroke-linejoin:round;}
	.st4{fill:none;stroke:#A1752B;stroke-width:0.8122;stroke-linecap:round;stroke-linejoin:round;}
</style>
<g>
	<path class="st0" d="M-793.1,226.4l2.6-5.4h0.6l2.7,5.4h-0.7l-0.7-1.5h-3l-0.7,1.5H-793.1z M-791.4,224.4h2.4l-1.2-2.4
		L-791.4,224.4z"/>
	<path class="st0" d="M-785.5,226.4V221h3.1c0.5,0,0.9,0.1,1.2,0.4c0.3,0.3,0.4,0.6,0.4,1.1c0,0.4-0.1,0.7-0.4,1
		c-0.2,0.3-0.5,0.5-0.9,0.5l1.3,2.4h-0.7l-1.3-2.4h-2.1v2.4H-785.5z M-784.8,223.5h2.4c0.3,0,0.6-0.1,0.8-0.2
		c0.2-0.1,0.3-0.4,0.3-0.7s-0.1-0.5-0.3-0.7s-0.4-0.2-0.7-0.2h-2.4L-784.8,223.5L-784.8,223.5z"/>
	<path class="st0" d="M-779.3,226.4l3.6-4.8h-3.3V221h4.6l-3.6,4.8h3.5v0.6H-779.3z"/>
	<path class="st0" d="M-772.4,226.4V221h3.2c0.5,0,0.9,0.1,1.2,0.3s0.4,0.6,0.4,1c0,0.2,0,0.4-0.1,0.6c-0.1,0.2-0.2,0.3-0.4,0.4
		c0.3,0.2,0.5,0.4,0.6,0.6c0.1,0.2,0.2,0.5,0.2,0.8c0,0.5-0.2,0.9-0.5,1.2s-0.8,0.4-1.3,0.4h-3.3V226.4z M-771.7,223.2h2.6
		c0.3,0,0.5-0.1,0.6-0.2c0.1-0.1,0.2-0.3,0.2-0.6s-0.1-0.4-0.2-0.6c-0.1-0.2-0.4-0.2-0.7-0.2h-2.6L-771.7,223.2L-771.7,223.2z
		 M-771.7,225.8h2.8c0.3,0,0.5-0.1,0.7-0.3s0.3-0.4,0.3-0.7s-0.1-0.6-0.3-0.7c-0.2-0.1-0.4-0.3-0.7-0.3h-2.8V225.8z"/>
	<path class="st0" d="M-764.8,226.4V221h4.2v0.6h-3.6v1.6h2.2v0.6h-2.2v1.9h3.8v0.6h-4.4V226.4z"/>
	<path class="st0" d="M-758.4,226.4V221h3.1c0.5,0,0.9,0.1,1.2,0.4c0.3,0.3,0.4,0.6,0.4,1.1c0,0.4-0.1,0.7-0.4,1
		c-0.2,0.3-0.5,0.5-0.9,0.5l1.3,2.4h-0.7l-1.3-2.4h-2.1v2.4H-758.4z M-757.7,223.5h2.4c0.3,0,0.6-0.1,0.8-0.2s0.3-0.4,0.3-0.7
		s-0.1-0.5-0.3-0.7s-0.4-0.2-0.7-0.2h-2.4v1.8H-757.7z"/>
	<path class="st0" d="M-747.3,225v-0.8h-1.5v-0.6h2.1v1.6c-0.3,0.4-0.6,0.8-1,1c-0.4,0.2-0.9,0.4-1.4,0.4c-0.8,0-1.5-0.3-2-0.8
		s-0.8-1.2-0.8-2s0.3-1.5,0.8-2s1.2-0.8,2-0.8c0.5,0,1,0.1,1.4,0.3c0.4,0.2,0.7,0.5,1,0.9l-0.6,0.4c-0.2-0.3-0.4-0.6-0.7-0.8
		s-0.7-0.3-1.1-0.3c-0.6,0-1.1,0.2-1.5,0.6c-0.4,0.4-0.6,0.9-0.6,1.6s0.2,1.2,0.6,1.6c0.4,0.4,0.9,0.6,1.5,0.6c0.4,0,0.7-0.1,1-0.2
		C-747.8,225.6-747.5,225.3-747.3,225z"/>
	<path class="st0" d="M-744.2,226.4V221h4.2v0.6h-3.6v1.6h2.2v0.6h-2.2v1.9h3.8v0.6h-4.4V226.4z"/>
	<path class="st0" d="M-737.8,226.4V221h3.1c0.5,0,0.9,0.1,1.2,0.4c0.3,0.3,0.4,0.6,0.4,1.1c0,0.4-0.1,0.7-0.4,1
		c-0.2,0.3-0.5,0.5-0.9,0.5l1.3,2.4h-0.7l-1.3-2.4h-2.1v2.4H-737.8z M-737.1,223.5h2.4c0.3,0,0.6-0.1,0.8-0.2
		c0.2-0.1,0.3-0.4,0.3-0.7s-0.1-0.5-0.3-0.7c-0.2-0.2-0.4-0.2-0.7-0.2h-2.4L-737.1,223.5L-737.1,223.5z"/>
	<path class="st0" d="M-727,225.6l0.4-0.6c0.4,0.3,0.8,0.5,1.2,0.7c0.4,0.2,0.8,0.2,1.2,0.2c0.5,0,0.9-0.1,1.2-0.3s0.5-0.5,0.5-0.8
		s-0.1-0.5-0.3-0.7c-0.2-0.2-0.5-0.3-0.9-0.3c-0.1,0-0.2,0-0.4,0c-0.9-0.1-1.5-0.2-1.8-0.3c-0.3-0.1-0.4-0.3-0.6-0.5
		c-0.1-0.2-0.2-0.4-0.2-0.6c0-0.4,0.2-0.8,0.6-1.1c0.4-0.3,0.9-0.4,1.5-0.4c0.4,0,0.9,0.1,1.3,0.2c0.4,0.1,0.9,0.4,1.2,0.7l-0.4,0.6
		c-0.3-0.3-0.7-0.5-1-0.6c-0.4-0.1-0.7-0.2-1.1-0.2c-0.4,0-0.7,0.1-1,0.2c-0.3,0.2-0.4,0.4-0.4,0.6c0,0.1,0,0.2,0.1,0.3
		c0.1,0.1,0.1,0.2,0.2,0.2c0.2,0.2,0.7,0.3,1.4,0.3c0.3,0,0.6,0,0.8,0.1c0.5,0.1,1,0.2,1.3,0.5c0.3,0.3,0.5,0.6,0.5,1.1
		s-0.2,0.9-0.7,1.2s-1,0.5-1.7,0.5c-0.5,0-1-0.1-1.5-0.2S-726.6,226-727,225.6z"/>
	<path class="st0" d="M-718.6,226.4v-4.8h-2.3V221h5.2v0.6h-2.3v4.8H-718.6z"/>
	<path class="st0" d="M-715.7,226.4l2.6-5.4h0.6l2.7,5.4h-0.7l-0.7-1.5h-3l-0.7,1.5H-715.7z M-714,224.4h2.4l-1.2-2.4L-714,224.4z"
		/>
	<path class="st0" d="M-707.6,226.4v-4.8h-2.3V221h5.2v0.6h-2.3v4.8H-707.6z"/>
	<path class="st0" d="M-703.4,226.4V221h0.7v5.4H-703.4z"/>
	<path class="st0" d="M-697.7,226.6c-0.8,0-1.5-0.3-2-0.8s-0.8-1.2-0.8-2s0.3-1.5,0.8-2s1.2-0.8,2-0.8c0.8,0,1.5,0.3,2,0.8
		s0.8,1.2,0.8,2s-0.3,1.5-0.8,2C-696.3,226.3-696.9,226.6-697.7,226.6z M-697.7,226c0.6,0,1.1-0.2,1.5-0.6c0.4-0.4,0.6-0.9,0.6-1.6
		c0-0.6-0.2-1.2-0.6-1.6c-0.4-0.4-0.9-0.6-1.5-0.6c-0.6,0-1.1,0.2-1.5,0.6c-0.4,0.4-0.6,0.9-0.6,1.6s0.2,1.2,0.6,1.6
		C-698.8,225.8-698.3,226-697.7,226z"/>
	<path class="st0" d="M-692.8,226.4V221h0.4l3.5,4v-4h0.7v5.4h-0.3l-3.5-4v4H-692.8z"/>
	<path class="st0" d="M-685.6,226.4V221h4.2v0.6h-3.6v1.6h2.2v0.6h-2.2v1.9h3.8v0.6h-4.4V226.4z"/>
	<path class="st0" d="M-679.2,226.4V221h3.1c0.5,0,0.9,0.1,1.2,0.4c0.3,0.3,0.4,0.6,0.4,1.1c0,0.4-0.1,0.7-0.4,1
		c-0.2,0.3-0.5,0.5-0.9,0.5l1.3,2.4h-0.7l-1.3-2.4h-2.1v2.4H-679.2z M-678.5,223.5h2.4c0.3,0,0.6-0.1,0.8-0.2s0.3-0.4,0.3-0.7
		s-0.1-0.5-0.3-0.7s-0.4-0.2-0.7-0.2h-2.4v1.8H-678.5z"/>
	<path class="st0" d="M-672.7,225.6l0.4-0.6c0.4,0.3,0.8,0.5,1.2,0.7c0.4,0.2,0.8,0.2,1.2,0.2c0.5,0,0.9-0.1,1.2-0.3
		s0.5-0.5,0.5-0.8s-0.1-0.5-0.3-0.7s-0.5-0.3-0.9-0.3c-0.1,0-0.2,0-0.4,0c-0.9-0.1-1.5-0.2-1.8-0.3c-0.3-0.1-0.4-0.3-0.6-0.5
		c-0.1-0.2-0.2-0.4-0.2-0.6c0-0.4,0.2-0.8,0.6-1.1s0.9-0.4,1.5-0.4c0.4,0,0.9,0.1,1.3,0.2c0.4,0.1,0.9,0.4,1.2,0.7l-0.4,0.6
		c-0.3-0.3-0.7-0.5-1-0.6c-0.4-0.1-0.7-0.2-1.1-0.2s-0.7,0.1-1,0.2c-0.3,0.2-0.4,0.4-0.4,0.6c0,0.1,0,0.2,0.1,0.3
		c0.1,0.1,0.1,0.2,0.2,0.2c0.2,0.2,0.7,0.3,1.4,0.3c0.3,0,0.6,0,0.8,0.1c0.5,0.1,1,0.2,1.3,0.5c0.3,0.3,0.5,0.6,0.5,1.1
		s-0.2,0.9-0.7,1.2s-1,0.5-1.7,0.5c-0.5,0-1-0.1-1.5-0.2S-672.3,226-672.7,225.6z"/>
</g>
<g>
	<path class="st0" d="M-748.8,242L-748.8,242c0.6,1.3,1,1.7,1.7,1.7c0.8,0,1.3-0.6,1.3-1.2c0-0.5-0.2-0.9-1.1-1.4
		c-0.8-0.4-1.2-0.7-1.2-1.4c0-0.9,0.8-1.7,2-1.7c0.6,0,0.9,0.2,1.2,0.3l0.5-0.4h0.1l-0.4,1.7h-0.1c-0.4-1.2-0.7-1.5-1.4-1.5
		c-0.7,0-1.2,0.5-1.2,1.2c0,0.6,0.5,0.9,1.1,1.2c0.7,0.4,1.1,0.7,1.1,1.4c0,0.9-0.6,1.9-2.1,1.9c-0.5,0-1.1-0.2-1.4-0.4l-0.5,0.4
		h-0.1L-748.8,242z"/>
	<path class="st0" d="M-742.6,243.5c-0.1,0-0.5,0.2-0.8,0.2c-0.4,0-0.6-0.2-0.6-0.5c0-0.1,0-0.2,0.1-0.4l0.7-2.3
		c0.1-0.3-0.1-0.4-0.6-0.4V240h1.4l-0.9,2.9c0,0.2-0.1,0.3-0.1,0.4C-743.4,243.4-743.2,243.5-742.6,243.5L-742.6,243.5z
		 M-742.3,238.1c0.2,0,0.3,0.1,0.3,0.4c0,0.3-0.2,0.6-0.5,0.6c-0.2,0-0.3-0.1-0.3-0.4C-742.8,238.4-742.6,238.1-742.3,238.1z"/>
	<path class="st0" d="M-740.7,240.5c0.1-0.3,0-0.4-0.5-0.4V240h1.3l-0.3,0.8l0,0c0.5-0.5,1.1-0.8,1.5-0.8c0.5,0,0.7,0.3,0.7,0.7
		c0,0.2,0,0.3-0.1,0.5l-0.6,1.7c0,0.2-0.1,0.3-0.1,0.4c0,0.2,0.2,0.3,0.7,0.2v0.1c-0.1,0-0.4,0.2-0.7,0.2c-0.4,0-0.6-0.1-0.6-0.5
		c0-0.1,0-0.2,0.1-0.4l0.5-1.6c0.1-0.2,0.1-0.3,0.1-0.5c0-0.3-0.1-0.4-0.5-0.4c-0.4,0-0.7,0.2-1.2,0.6l-0.7,2.7h-0.7l0.4-1.3
		L-740.7,240.5z"/>
	<path class="st0" d="M-733.8,240.6c0,0.3-0.2,0.5-0.4,0.5c-0.2,0-0.4-0.1-0.4-0.4c0-0.1,0.1-0.3,0.3-0.4c-0.1-0.1-0.2-0.2-0.5-0.2
		c-0.8,0-1.4,1.4-1.4,2.3c0,0.7,0.3,1.2,0.9,1.2c0.4,0,0.8-0.3,1.1-0.7l0.1,0.1c-0.4,0.6-0.9,0.8-1.4,0.8c-0.8,0-1.4-0.6-1.4-1.5
		c0-1.1,1-2.3,2-2.3C-734.3,239.9-733.8,240.2-733.8,240.6z"/>
	<path class="st0" d="M-732.5,241.9c0,0.2,0,0.3,0,0.5c0,0.7,0.2,1.1,0.8,1.1c0.4,0,0.8-0.3,1.2-0.7l0.1,0.1
		c-0.4,0.6-0.9,0.8-1.5,0.8c-0.6,0-1.3-0.3-1.3-1.3c0-1.2,1-2.5,2.2-2.5c0.7,0,1,0.3,1,0.8C-730,241.3-730.8,241.9-732.5,241.9z
		 M-732.5,241.8c1.6,0,1.8-0.7,1.8-1.2c0-0.3-0.2-0.5-0.4-0.5C-731.7,240.1-732.3,240.9-732.5,241.8z"/>
	<path class="st0" d="M-727.9,243.5c0.8,0,1.1-0.1,1.2-0.5l1-3.8c0.1-0.5,0.1-0.7-0.9-0.7v-0.1l1.8-0.1l-1.3,4.7
		c-0.1,0.4,0.1,0.4,0.9,0.5v0.1h-2.8L-727.9,243.5z"/>
	<path class="st0" d="M-719.5,239.9c0,2.1-1.7,3.6-4.3,3.8v-0.1c2.2-0.4,3-1.6,3.3-2.6l0,0c-0.4,0.6-0.9,0.9-1.5,0.9
		c-0.9,0-1.3-0.6-1.3-1.4c0-1,0.9-2.2,2.3-2.2C-720,238.3-719.5,239-719.5,239.9z M-722.5,240.7c0,0.7,0.3,1,0.7,1
		c0.7,0,1.6-0.8,1.6-2.2c0-0.6-0.3-1.1-0.8-1.1C-722,238.4-722.5,239.7-722.5,240.7z"/>
	<path class="st0" d="M-719.3,243.2l2.1-1.5c1.1-0.8,1.4-1.4,1.4-2.2c0-0.6-0.3-1-0.8-1c-0.4,0-0.8,0.3-1,0.6
		c0.3,0.1,0.4,0.3,0.4,0.6s-0.2,0.5-0.5,0.5s-0.5-0.2-0.5-0.6c0-0.7,0.8-1.3,1.7-1.3c1,0,1.6,0.5,1.6,1.2s-0.5,1.2-2.5,2.6l-1.3,0.9
		l0,0h1.9c0.6,0,0.8-0.1,1.3-0.9h0.1l-0.4,1.5h-3.5V243.2z"/>
	<path class="st0" d="M-714.6,243.2l2.1-1.5c1.1-0.8,1.4-1.4,1.4-2.2c0-0.6-0.3-1-0.8-1c-0.4,0-0.8,0.3-1,0.6
		c0.3,0.1,0.4,0.3,0.4,0.6s-0.2,0.5-0.5,0.5s-0.5-0.2-0.5-0.6c0-0.7,0.8-1.3,1.7-1.3c1,0,1.6,0.5,1.6,1.2s-0.5,1.2-2.5,2.6l-1.3,0.9
		l0,0h1.9c0.6,0,0.8-0.1,1.3-0.9h0.1l-0.4,1.5h-3.5V243.2z"/>
</g>
<path class="st1" d="M-729.5,201.9c0,0.6-0.5,1.3-1.1,1.2l1.1,1.8l1.1-1.8C-729.1,203.2-729.5,202.5-729.5,201.9"/>
<path class="st2" d="M-740.6,171.4c-0.2,0-1.9,2.8-1.9,2.8s2.3,1.8,2,6.8c-0.3,4.9-3.6,5.9-3.6,5.9s1.5,7,5.1,9.2
	c3.6,2.2,9.5,3.6,9.5,5.5c0.1-1.9,5.8-3.4,9.4-5.5c3.6-2.2,5.1-9.2,5.1-9.2s-3.3-1-3.6-5.9c-0.3-5,2-6.8,2-6.8s-1.7-2.8-1.9-2.8
	C-725.2,172.5-734,172.5-740.6,171.4"/>
<polygon class="st1" points="-729.4,181.2 -738,196.4 -735.3,198 -732.1,199.4 -730.1,200.7 -726.9,199.2 -721.3,196.8 
	-720.9,196.4 "/>
<polygon class="st1" points="-734.5,172.1 -729.6,181.1 -724.5,172.2 "/>
<path class="st3" d="M-740.6,171.4c-0.2,0-1.9,2.8-1.9,2.8s2.3,1.8,2,6.8c-0.3,4.9-3.6,5.9-3.6,5.9s1.5,7,5.1,9.2
	c3.6,2.2,9.5,3.6,9.5,5.5c0.1-1.9,5.8-3.4,9.4-5.5c3.6-2.2,5.1-9.2,5.1-9.2s-3.3-1-3.6-5.9c-0.3-5,2-6.8,2-6.8s-1.7-2.8-1.9-2.8
	C-725.2,172.5-734,172.5-740.6,171.4z"/>
<path class="st3" d="M-721.8,169.1c-5.1,0.6-10.9,0.5-15.9,0"/>
<path class="st3" d="M-721.8,169.1c0.4,0,0.9-0.4,0.8-0.7"/>
<path class="st3" d="M-721.8,169.1c0.4,0,0.9,0.4,0.8,0.7"/>
<path class="st3" d="M-737.6,169.1c-0.4,0-0.9-0.4-0.8-0.7"/>
<path class="st3" d="M-737.6,169.1c-0.4,0-0.9,0.4-0.8,0.7"/>
<line class="st3" x1="-729.5" y1="180.9" x2="-729.5" y2="201.2"/>
<line class="st3" x1="-727.7" y1="199.7" x2="-727.7" y2="184.4"/>
<line class="st3" x1="-726" y1="187.6" x2="-726" y2="198.9"/>
<line class="st3" x1="-724.2" y1="190.8" x2="-724.2" y2="198.1"/>
<line class="st3" x1="-722.4" y1="194" x2="-722.4" y2="197.3"/>
<line class="st3" x1="-731.3" y1="184.3" x2="-731.3" y2="199.7"/>
<line class="st3" x1="-733" y1="187.4" x2="-733" y2="198.9"/>
<line class="st3" x1="-734.8" y1="190.6" x2="-734.8" y2="198.1"/>
<line class="st3" x1="-736.6" y1="193.8" x2="-736.6" y2="197.3"/>
<line class="st3" x1="-721" y1="196.5" x2="-734.5" y2="172.1"/>
<polyline class="st3" points="-724.6,172.1 -738.1,196.5 -732.6,199.1 -729.8,200.9 -726.8,199.2 "/>
<path class="st3" d="M-729.5,202.1c0,0.5-0.5,1.1-1,1.1l1,1.6l1-1.6C-729.1,203.2-729.5,202.6-729.5,202.1"/>
<line class="st3" x1="-729.5" y1="200.6" x2="-729.5" y2="202.3"/>
<g>
	<path class="st0" d="M-808-145.8l11.3-23.1h2.4l11.4,23.1h-3.1l-3.1-6.2h-12.8l-3.1,6.2H-808z M-800.6-154.7h10.2l-5.1-10.2
		L-800.6-154.7z"/>
	<path class="st0" d="M-775.2-145.8v-23.1h13.2c2.3,0,4,0.6,5.3,1.7c1.3,1.1,1.9,2.7,1.9,4.7c0,1.7-0.5,3.1-1.5,4.3s-2.3,1.9-4,2.2
		l5.8,10.1h-3.2l-5.8-10.1h-8.9v10.1h-2.8V-145.8z M-772.4-158.6h10.2c1.4,0,2.5-0.3,3.3-1c0.7-0.6,1.1-1.6,1.1-2.8
		s-0.4-2.2-1.1-2.8c-0.7-0.7-1.8-1-3.1-1h-10.3v7.6H-772.4z"/>
	<path class="st0" d="M-748.8-145.8l15.6-20.4h-14.3v-2.7h19.5l-15.2,20.4h15.2v2.7H-748.8z"/>
	<path class="st0" d="M-719.2-145.8v-23.1h13.7c2.3,0,4,0.5,5.2,1.5s1.7,2.4,1.7,4.3c0,0.9-0.2,1.7-0.5,2.5
		c-0.4,0.7-0.9,1.3-1.5,1.8c1.2,0.7,2.2,1.6,2.8,2.6c0.6,1,0.9,2.2,0.9,3.6c0,2.1-0.7,3.8-2.1,5.1s-3.3,1.9-5.7,1.9h-14.5V-145.8z
		 M-716.3-159.7h11c1.2,0,2.1-0.3,2.8-0.8c0.6-0.5,1-1.3,1-2.4c0-1.1-0.3-1.9-0.9-2.4c-0.6-0.5-1.6-0.8-2.8-0.8h-11L-716.3-159.7
		L-716.3-159.7z M-716.3-148.4h12.1c1.3,0,2.3-0.4,3.1-1.2s1.1-1.8,1.1-3.2c0-1.3-0.4-2.4-1.1-3.2c-0.8-0.8-1.8-1.2-3.1-1.2h-12.1
		V-148.4z"/>
	<path class="st0" d="M-686.9-145.8v-23.1h18.2v2.7H-684v6.8h9.2v2.7h-9.2v8.3h16.2v2.7L-686.9-145.8L-686.9-145.8z"/>
	<path class="st0" d="M-659.4-145.8v-23.1h13.2c2.3,0,4,0.6,5.3,1.7c1.3,1.1,1.9,2.7,1.9,4.7c0,1.7-0.5,3.1-1.5,4.3s-2.3,1.9-4,2.2
		l5.8,10.1h-3.2l-5.8-10.1h-8.9v10.1h-2.8V-145.8z M-656.5-158.6h10.2c1.4,0,2.5-0.3,3.3-1c0.7-0.6,1.1-1.6,1.1-2.8
		s-0.4-2.2-1.1-2.8c-0.7-0.7-1.8-1-3.1-1h-10.3L-656.5-158.6L-656.5-158.6z"/>
	<path class="st0" d="M-611.7-152v-3.4h-6.3v-2.7h9.2v6.9c-1.1,1.9-2.6,3.4-4.4,4.4s-3.8,1.5-6.1,1.5c-3.5,0-6.3-1.1-8.6-3.4
		c-2.3-2.3-3.4-5.2-3.4-8.7s1.1-6.4,3.4-8.7c2.3-2.3,5.1-3.4,8.6-3.4c2.1,0,4.1,0.5,5.8,1.4c1.8,0.9,3.2,2.3,4.3,4l-2.4,1.7
		c-0.7-1.4-1.8-2.5-3.1-3.2s-2.9-1.2-4.6-1.2c-2.6,0-4.7,0.9-6.4,2.7c-1.7,1.8-2.6,4-2.6,6.7s0.9,5,2.6,6.7c1.7,1.7,3.8,2.7,6.4,2.7
		c1.6,0,3.1-0.3,4.3-1C-613.7-149.6-612.6-150.6-611.7-152z"/>
	<path class="st0" d="M-598.7-145.8v-23.1h18.2v2.7h-15.3v6.8h9.2v2.7h-9.2v8.3h16.2v2.7L-598.7-145.8L-598.7-145.8z"/>
	<path class="st0" d="M-571.1-145.8v-23.1h13.2c2.3,0,4,0.6,5.3,1.7c1.3,1.1,1.9,2.7,1.9,4.7c0,1.7-0.5,3.1-1.5,4.3s-2.3,1.9-4,2.2
		l5.8,10.1h-3.2l-5.8-10.1h-8.9v10.1h-2.8V-145.8z M-568.3-158.6h10.2c1.4,0,2.5-0.3,3.3-1s1.1-1.6,1.1-2.8s-0.4-2.2-1.1-2.8
		c-0.7-0.7-1.8-1-3.1-1h-10.3L-568.3-158.6L-568.3-158.6z"/>
</g>
<g>
	<path class="st1" d="M98.9,197.6c0,2.9-2.6,6.5-5.8,6.1l5.6,9.4l5.8-9.4C101.3,204.1,98.8,200.5,98.9,197.6"/>
	<path class="st2" d="M41.7,40.2c-1.2-0.2-9.9,14.3-9.9,14.3s12,9.3,10.4,35.2c-1.6,25.3-18.6,30.4-18.6,30.4s7.9,36.3,26.4,47.4
		c18.5,11.1,48.7,18.6,48.7,28.5c0.4-9.9,30.1-17.3,48.6-28.5c18.5-11.1,26.4-47.4,26.4-47.4s-17-5.1-18.6-30.4
		c-1.6-25.9,10.4-35.2,10.4-35.2s-8.7-14.5-9.9-14.3C121.4,46.1,76,46.1,41.7,40.2"/>
	<polygon class="st1" points="99.4,90.7 55.3,169.2 69.2,177.4 85.5,184.4 95.8,191.3 112.5,183.6 141.1,171.3 143.2,169.2 	"/>
	<polygon class="st1" points="73.1,43.8 98.8,90.2 124.9,44.4 	"/>
	<path class="st3" d="M41.7,40.2c-1.2-0.2-9.9,14.3-9.9,14.3s12,9.3,10.4,35.2c-1.6,25.3-18.6,30.4-18.6,30.4s7.9,36.3,26.4,47.4
		c18.5,11.1,48.7,18.6,48.7,28.5c0.4-9.9,30.1-17.3,48.6-28.5c18.5-11.1,26.4-47.4,26.4-47.4s-17-5.1-18.6-30.4
		c-1.6-25.9,10.4-35.2,10.4-35.2s-8.7-14.5-9.9-14.3C121.4,46.1,76,46.1,41.7,40.2z"/>
	<path class="st3" d="M138.9,28.6c-26.1,2.9-56,2.8-82-0.2"/>
	<path class="st3" d="M138.5,28.5c2,0,4.7-2.1,4.2-3.8"/>
	<path class="st3" d="M138.5,28.7c2,0,4.7,2.1,4.2,3.8"/>
	<path class="st3" d="M57.4,28.5c-2,0-4.7-2.1-4.2-3.8"/>
	<path class="st3" d="M57.4,28.7c-2,0-4.7,2.1-4.2,3.8"/>
	<line class="st3" x1="98.8" y1="89.1" x2="98.8" y2="193.8"/>
	<line class="st3" x1="108.2" y1="186" x2="108.2" y2="107.5"/>
	<line class="st3" x1="117" y1="123.7" x2="117" y2="181.9"/>
	<line class="st3" x1="126.3" y1="140.3" x2="126.3" y2="177.7"/>
	<line class="st3" x1="135.7" y1="156.9" x2="135.7" y2="173.6"/>
	<line class="st3" x1="90" y1="106.7" x2="90" y2="186"/>
	<line class="st3" x1="81.2" y1="122.6" x2="81.2" y2="181.9"/>
	<line class="st3" x1="71.8" y1="139.3" x2="71.8" y2="177.7"/>
	<line class="st3" x1="62.5" y1="155.9" x2="62.5" y2="173.8"/>
	<line class="st3" x1="142.9" y1="169.8" x2="73.3" y2="43.8"/>
	<polyline class="st3" points="124.6,44.2 54.8,169.8 83.1,183.1 97.4,192.1 112.9,183.5 	"/>
	<path class="st3" d="M98.8,198.4c0,2.6-2.3,5.8-5.1,5.5l5,8.4l5.2-8.4C101.1,204.2,98.8,201,98.8,198.4"/>
	<line class="st3" x1="98.8" y1="190.9" x2="98.8" y2="199.3"/>
</g>
<g>
	<path class="st0" d="M-787.3,365.6l2.6-5.4h0.6l2.7,5.4h-0.7l-0.7-1.5h-3l-0.7,1.5H-787.3z M-785.5,363.5h2.4l-1.2-2.4
		L-785.5,363.5z"/>
	<path class="st0" d="M-779.6,365.6v-5.4h3.1c0.5,0,0.9,0.1,1.2,0.4c0.3,0.3,0.4,0.6,0.4,1.1c0,0.4-0.1,0.7-0.4,1
		c-0.2,0.3-0.5,0.5-0.9,0.5l1.3,2.4h-0.7l-1.3-2.4h-2.1v2.4H-779.6z M-779,362.6h2.4c0.3,0,0.6-0.1,0.8-0.2c0.2-0.1,0.3-0.4,0.3-0.7
		s-0.1-0.5-0.3-0.7c-0.2-0.2-0.4-0.2-0.7-0.2h-2.4L-779,362.6L-779,362.6z"/>
	<path class="st0" d="M-773.5,365.6l3.6-4.8h-3.3v-0.6h4.6l-3.6,4.8h3.5v0.6H-773.5z"/>
	<path class="st0" d="M-766.5,365.6v-5.4h3.2c0.5,0,0.9,0.1,1.2,0.3s0.4,0.6,0.4,1c0,0.2,0,0.4-0.1,0.6c-0.1,0.2-0.2,0.3-0.4,0.4
		c0.3,0.2,0.5,0.4,0.6,0.6c0.1,0.2,0.2,0.5,0.2,0.8c0,0.5-0.2,0.9-0.5,1.2s-0.8,0.4-1.3,0.4h-3.3V365.6z M-765.9,362.3h2.6
		c0.3,0,0.5-0.1,0.6-0.2c0.1-0.1,0.2-0.3,0.2-0.6s-0.1-0.4-0.2-0.6c-0.1-0.2-0.4-0.2-0.7-0.2h-2.6L-765.9,362.3L-765.9,362.3z
		 M-765.9,365h2.8c0.3,0,0.5-0.1,0.7-0.3s0.3-0.4,0.3-0.7s-0.1-0.6-0.3-0.7c-0.2-0.1-0.4-0.3-0.7-0.3h-2.8V365z"/>
	<path class="st0" d="M-759,365.6v-5.4h4.2v0.6h-3.6v1.6h2.2v0.6h-2.2v1.9h3.8v0.6h-4.4V365.6z"/>
	<path class="st0" d="M-752.6,365.6v-5.4h3.1c0.5,0,0.9,0.1,1.2,0.4c0.3,0.3,0.4,0.6,0.4,1.1c0,0.4-0.1,0.7-0.4,1
		c-0.2,0.3-0.5,0.5-0.9,0.5l1.3,2.4h-0.7l-1.3-2.4h-2.1v2.4H-752.6z M-751.9,362.6h2.4c0.3,0,0.6-0.1,0.8-0.2
		c0.2-0.1,0.3-0.4,0.3-0.7s-0.1-0.5-0.3-0.7c-0.2-0.2-0.4-0.2-0.7-0.2h-2.4L-751.9,362.6L-751.9,362.6z"/>
	<path class="st0" d="M-741.4,364.1v-0.8h-1.5v-0.6h2.1v1.6c-0.3,0.4-0.6,0.8-1,1c-0.4,0.2-0.9,0.4-1.4,0.4c-0.8,0-1.5-0.3-2-0.8
		s-0.8-1.2-0.8-2s0.3-1.5,0.8-2s1.2-0.8,2-0.8c0.5,0,1,0.1,1.4,0.3c0.4,0.2,0.7,0.5,1,0.9l-0.6,0.4c-0.2-0.3-0.4-0.6-0.7-0.8
		s-0.7-0.3-1.1-0.3c-0.6,0-1.1,0.2-1.5,0.6c-0.4,0.4-0.6,0.9-0.6,1.6s0.2,1.2,0.6,1.6c0.4,0.4,0.9,0.6,1.5,0.6c0.4,0,0.7-0.1,1-0.2
		C-741.9,364.7-741.7,364.5-741.4,364.1z"/>
	<path class="st0" d="M-738.4,365.6v-5.4h4.2v0.6h-3.6v1.6h2.2v0.6h-2.2v1.9h3.8v0.6h-4.4V365.6z"/>
	<path class="st0" d="M-732,365.6v-5.4h3.1c0.5,0,0.9,0.1,1.2,0.4c0.3,0.3,0.4,0.6,0.4,1.1c0,0.4-0.1,0.7-0.4,1
		c-0.2,0.3-0.5,0.5-0.9,0.5l1.3,2.4h-0.7l-1.3-2.4h-2.1v2.4H-732z M-731.3,362.6h2.4c0.3,0,0.6-0.1,0.8-0.2c0.2-0.1,0.3-0.4,0.3-0.7
		s-0.1-0.5-0.3-0.7c-0.2-0.2-0.4-0.2-0.7-0.2h-2.4L-731.3,362.6L-731.3,362.6z"/>
</g>
<g>
	<path class="st1" d="M-757.2,345.4c0,0.7-0.6,1.6-1.4,1.5l1.3,2.3l1.4-2.3C-756.6,347-757.2,346.1-757.2,345.4"/>
	<path class="st2" d="M-770.9,307.6c-0.3,0-2.4,3.4-2.4,3.4s2.9,2.2,2.5,8.4c-0.4,6.1-4.5,7.3-4.5,7.3s1.9,8.7,6.3,11.4
		c4.4,2.7,11.7,4.5,11.7,6.8c0.1-2.4,7.2-4.2,11.7-6.8c4.4-2.7,6.3-11.4,6.3-11.4s-4.1-1.2-4.5-7.3c-0.4-6.2,2.5-8.4,2.5-8.4
		s-2.1-3.5-2.4-3.4C-751.8,309.1-762.6,309.1-770.9,307.6"/>
	<polygon class="st1" points="-757,319.8 -767.6,338.6 -764.3,340.6 -760.4,342.2 -757.9,343.9 -753.9,342 -747,339.1 -746.5,338.6 
			"/>
	<polygon class="st1" points="-763.3,308.5 -757.2,319.6 -750.9,308.7 	"/>
	<path class="st4" d="M-770.9,307.6c-0.3,0-2.4,3.4-2.4,3.4s2.9,2.2,2.5,8.4c-0.4,6.1-4.5,7.3-4.5,7.3s1.9,8.7,6.3,11.4
		c4.4,2.7,11.7,4.5,11.7,6.8c0.1-2.4,7.2-4.2,11.7-6.8c4.4-2.7,6.3-11.4,6.3-11.4s-4.1-1.2-4.5-7.3c-0.4-6.2,2.5-8.4,2.5-8.4
		s-2.1-3.5-2.4-3.4C-751.8,309.1-762.6,309.1-770.9,307.6z"/>
	<path class="st4" d="M-747.5,304.9c-6.3,0.7-13.4,0.7-19.7,0"/>
	<path class="st4" d="M-747.6,304.8c0.5,0,1.1-0.5,1-0.9"/>
	<path class="st4" d="M-747.6,304.9c0.5,0,1.1,0.5,1,0.9"/>
	<path class="st4" d="M-767.1,304.8c-0.5,0-1.1-0.5-1-0.9"/>
	<path class="st4" d="M-767.1,304.9c-0.5,0-1.1,0.5-1,0.9"/>
	<line class="st4" x1="-757.2" y1="319.4" x2="-757.2" y2="344.5"/>
	<line class="st4" x1="-754.9" y1="342.6" x2="-754.9" y2="323.8"/>
	<line class="st4" x1="-752.8" y1="327.7" x2="-752.8" y2="341.6"/>
	<line class="st4" x1="-750.6" y1="331.7" x2="-750.6" y2="340.6"/>
	<line class="st4" x1="-748.3" y1="335.6" x2="-748.3" y2="339.6"/>
	<line class="st4" x1="-759.3" y1="323.6" x2="-759.3" y2="342.6"/>
	<line class="st4" x1="-761.4" y1="327.4" x2="-761.4" y2="341.6"/>
	<line class="st4" x1="-763.6" y1="331.4" x2="-763.6" y2="340.6"/>
	<line class="st4" x1="-765.9" y1="335.4" x2="-765.9" y2="339.7"/>
	<line class="st4" x1="-746.6" y1="338.7" x2="-763.3" y2="308.5"/>
	<polyline class="st4" points="-751,308.6 -767.7,338.7 -760.9,341.9 -757.5,344.1 -753.8,342 	"/>
	<path class="st4" d="M-757.2,345.6c0,0.6-0.6,1.4-1.2,1.3l1.2,2l1.2-2C-756.6,347-757.2,346.2-757.2,345.6"/>
	<line class="st4" x1="-757.2" y1="343.8" x2="-757.2" y2="345.8"/>
</g>
<g>
	<path class="st0" d="M-760.7,102.2l2.6-5.4h0.6l2.7,5.4h-0.7l-0.7-1.5h-3l-0.7,1.5H-760.7z M-759,100.1h2.4l-1.2-2.4L-759,100.1z"
		/>
	<path class="st0" d="M-753.1,102.2v-5.4h3.1c0.5,0,0.9,0.1,1.2,0.4s0.4,0.6,0.4,1.1c0,0.4-0.1,0.7-0.4,1c-0.2,0.3-0.5,0.5-0.9,0.5
		l1.3,2.4h-0.7l-1.3-2.4h-2.1v2.4H-753.1z M-752.4,99.2h2.4c0.3,0,0.6-0.1,0.8-0.2c0.2-0.1,0.3-0.4,0.3-0.7c0-0.3-0.1-0.5-0.3-0.7
		c-0.2-0.2-0.4-0.2-0.7-0.2h-2.4L-752.4,99.2L-752.4,99.2z"/>
	<path class="st0" d="M-746.9,102.2l3.6-4.8h-3.3v-0.6h4.6l-3.6,4.8h3.5v0.6H-746.9z"/>
	<path class="st0" d="M-740,102.2v-5.4h3.2c0.5,0,0.9,0.1,1.2,0.3c0.3,0.2,0.4,0.6,0.4,1c0,0.2,0,0.4-0.1,0.6
		c-0.1,0.2-0.2,0.3-0.4,0.4c0.3,0.2,0.5,0.4,0.6,0.6c0.1,0.2,0.2,0.5,0.2,0.8c0,0.5-0.2,0.9-0.5,1.2c-0.3,0.3-0.8,0.4-1.3,0.4h-3.3
		V102.2z M-739.3,98.9h2.6c0.3,0,0.5-0.1,0.6-0.2c0.1-0.1,0.2-0.3,0.2-0.6c0-0.3-0.1-0.4-0.2-0.6s-0.4-0.2-0.7-0.2h-2.6L-739.3,98.9
		L-739.3,98.9z M-739.3,101.6h2.8c0.3,0,0.5-0.1,0.7-0.3c0.2-0.2,0.3-0.4,0.3-0.7c0-0.3-0.1-0.6-0.3-0.7s-0.4-0.3-0.7-0.3h-2.8
		V101.6z"/>
	<path class="st0" d="M-732.4,102.2v-5.4h4.2v0.6h-3.6V99h2.2v0.6h-2.2v1.9h3.8v0.6L-732.4,102.2L-732.4,102.2z"/>
	<path class="st0" d="M-726,102.2v-5.4h3.1c0.5,0,0.9,0.1,1.2,0.4c0.3,0.3,0.4,0.6,0.4,1.1c0,0.4-0.1,0.7-0.4,1
		c-0.2,0.3-0.5,0.5-0.9,0.5l1.3,2.4h-0.7l-1.3-2.4h-2.1v2.4H-726z M-725.3,99.2h2.4c0.3,0,0.6-0.1,0.8-0.2c0.2-0.1,0.3-0.4,0.3-0.7
		c0-0.3-0.1-0.5-0.3-0.7c-0.2-0.2-0.4-0.2-0.7-0.2h-2.4L-725.3,99.2L-725.3,99.2z"/>
	<path class="st0" d="M-714.9,100.7v-0.8h-1.5v-0.6h2.1v1.6c-0.3,0.4-0.6,0.8-1,1c-0.4,0.2-0.9,0.4-1.4,0.4c-0.8,0-1.5-0.3-2-0.8
		s-0.8-1.2-0.8-2s0.3-1.5,0.8-2s1.2-0.8,2-0.8c0.5,0,1,0.1,1.4,0.3c0.4,0.2,0.7,0.5,1,0.9l-0.6,0.4c-0.2-0.3-0.4-0.6-0.7-0.8
		s-0.7-0.3-1.1-0.3c-0.6,0-1.1,0.2-1.5,0.6c-0.4,0.4-0.6,0.9-0.6,1.6s0.2,1.2,0.6,1.6c0.4,0.4,0.9,0.6,1.5,0.6c0.4,0,0.7-0.1,1-0.2
		C-715.4,101.3-715.1,101-714.9,100.7z"/>
	<path class="st0" d="M-711.8,102.2v-5.4h4.2v0.6h-3.6V99h2.2v0.6h-2.2v1.9h3.8v0.6L-711.8,102.2L-711.8,102.2z"/>
	<path class="st0" d="M-705.4,102.2v-5.4h3.1c0.5,0,0.9,0.1,1.2,0.4s0.4,0.6,0.4,1.1c0,0.4-0.1,0.7-0.4,1c-0.2,0.3-0.5,0.5-0.9,0.5
		l1.3,2.4h-0.7l-1.3-2.4h-2.1v2.4H-705.4z M-704.7,99.2h2.4c0.3,0,0.6-0.1,0.8-0.2s0.3-0.4,0.3-0.7c0-0.3-0.1-0.5-0.3-0.7
		s-0.4-0.2-0.7-0.2h-2.4v1.8H-704.7z"/>
</g>
<g>
	<path class="st1" d="M-730.6,80.2c0,1-0.9,2.3-2,2.2l2,3.3l2.1-3.3C-729.7,82.5-730.6,81.2-730.6,80.2"/>
	<path class="st1" d="M-750.8,24.5c-0.4-0.1-3.5,5.1-3.5,5.1s4.3,3.3,3.7,12.5c-0.6,9-6.6,10.7-6.6,10.7s2.8,12.8,9.3,16.8
		c6.6,3.9,17.2,6.6,17.2,10.1c0.1-3.5,10.6-6.1,17.2-10.1c6.6-3.9,9.3-16.8,9.3-16.8s-6-1.8-6.6-10.7c-0.6-9.2,3.7-12.5,3.7-12.5
		s-3.1-5.1-3.5-5.1C-722.6,26.6-738.7,26.6-750.8,24.5"/>
	<polygon class="st1" points="-730.4,42.4 -746,70.1 -741.1,73 -735.3,75.5 -731.7,78 -725.7,75.2 -715.6,70.9 -714.9,70.1 	"/>
	<polygon class="st1" points="-739.7,25.8 -730.6,42.2 -721.3,25.9 	"/>
	<path class="st4" d="M-750.8,24.5c-0.4-0.1-3.5,5.1-3.5,5.1s4.3,3.3,3.7,12.5c-0.6,9-6.6,10.7-6.6,10.7s2.8,12.8,9.3,16.8
		c6.6,3.9,17.2,6.6,17.2,10.1c0.1-3.5,10.6-6.1,17.2-10.1c6.6-3.9,9.3-16.8,9.3-16.8s-6-1.8-6.6-10.7c-0.6-9.2,3.7-12.5,3.7-12.5
		s-3.1-5.1-3.5-5.1C-722.6,26.6-738.7,26.6-750.8,24.5z"/>
	<path class="st4" d="M-716.4,20.4c-9.2,1-19.8,1-29-0.1"/>
	<path class="st4" d="M-716.5,20.3c0.7,0,1.6-0.7,1.5-1.3"/>
	<path class="st4" d="M-716.5,20.4c0.7,0,1.6,0.7,1.5,1.3"/>
	<path class="st4" d="M-745.2,20.3c-0.7,0-1.6-0.7-1.5-1.3"/>
	<path class="st4" d="M-745.2,20.4c-0.7,0-1.6,0.7-1.5,1.3"/>
	<line class="st4" x1="-730.6" y1="41.8" x2="-730.6" y2="78.8"/>
	<line class="st4" x1="-727.3" y1="76.1" x2="-727.3" y2="48.3"/>
	<line class="st4" x1="-724.2" y1="54" x2="-724.2" y2="74.6"/>
	<line class="st4" x1="-720.8" y1="59.9" x2="-720.8" y2="73.2"/>
	<line class="st4" x1="-717.5" y1="65.8" x2="-717.5" y2="71.7"/>
	<line class="st4" x1="-733.7" y1="48" x2="-733.7" y2="76.1"/>
	<line class="st4" x1="-736.8" y1="53.6" x2="-736.8" y2="74.6"/>
	<line class="st4" x1="-740.1" y1="59.6" x2="-740.1" y2="73.2"/>
	<line class="st4" x1="-743.4" y1="65.4" x2="-743.4" y2="71.7"/>
	<line class="st4" x1="-715" y1="70.4" x2="-739.6" y2="25.7"/>
	<polyline class="st4" points="-721.5,25.9 -746.2,70.4 -736.2,75.1 -731.1,78.3 -725.6,75.2 	"/>
	<path class="st4" d="M-730.6,80.5c0,0.9-0.8,2.1-1.8,1.9l1.8,3l1.8-3C-729.8,82.5-730.6,81.4-730.6,80.5"/>
	<line class="st4" x1="-730.6" y1="77.8" x2="-730.6" y2="80.8"/>
</g>
<g>
	<path class="st0" d="M-882.1,531.1h0.5c2,5.8,3.8,7.1,6.8,7.1c3.5,0,5.4-2.5,5.4-5.2c0-2.1-0.9-3.9-4.9-5.8c-3.3-1.6-5-2.8-5-5.8
		c0-3.9,3.6-7.4,8.6-7.4c2.4,0,4,0.9,5.1,1.5l2-1.7h0.5l-1.8,7.2h-0.5c-1.8-5.3-3.1-6.4-6-6.4c-2.8,0-5,2.3-5,5.1
		c0,2.6,2.1,3.7,4.9,5.1c3.1,1.6,4.8,3.2,4.8,6c0,3.9-2.6,8-8.8,8c-2,0-4.7-0.8-6.1-1.6l-2,1.7h-0.5L-882.1,531.1z"/>
	<path class="st0" d="M-855.5,537.8c-0.3,0.1-2.2,0.8-3.5,0.8c-1.7,0-2.7-0.8-2.7-2.3c0-0.4,0.1-1,0.3-1.6l3.1-9.9
		c0.3-1.1-0.5-1.5-2.6-1.7v-0.4l6.2-0.2l-3.8,12.3c-0.2,0.7-0.3,1.2-0.3,1.6c0,1,0.8,1.3,3.4,1.2v0.2H-855.5z M-854.4,514.5
		c0.8,0,1.4,0.5,1.4,1.5c0,1.3-1,2.7-2.2,2.7c-0.8,0-1.4-0.5-1.4-1.6C-856.5,515.8-855.6,514.5-854.4,514.5z"/>
	<path class="st0" d="M-847.5,525c0.3-1.2-0.1-1.7-2.2-1.8v-0.4l5.5-0.2l-1.1,3.3l0.1,0.1c2.1-2,4.6-3.5,6.5-3.5c2,0,3.1,1.1,3.1,3
		c0,0.6-0.1,1.4-0.4,2.3l-2.4,7.4c-0.2,0.7-0.3,1.2-0.3,1.5c0,1,0.8,1.2,3,1v0.3c-0.3,0.1-1.6,0.6-2.9,0.6c-1.7,0-2.7-0.5-2.7-2
		c0-0.4,0.1-1,0.3-1.6l2.3-6.9c0.2-0.8,0.4-1.4,0.4-2c0-1.1-0.6-1.8-2-1.8c-1.5,0-3.2,1-5,2.4l-2.8,11.6h-3.1l1.7-5.5L-847.5,525z"
		/>
	<path class="st0" d="M-818,525.4c0,1.2-0.7,2-1.8,2c-1,0-1.8-0.6-1.8-1.8c0-0.5,0.4-1.4,1.2-1.8c-0.4-0.5-1-0.9-2-0.9
		c-3.5,0-5.9,5.9-5.9,9.7c0,3.1,1.3,5,4,5c1.8,0,3.5-1.2,4.7-2.8l0.4,0.4c-1.7,2.4-3.7,3.5-6.1,3.5c-3.3,0-6-2.4-6-6.3
		c0-4.9,4.1-9.9,8.7-9.9C-819.8,522.4-818,523.7-818,525.4z"/>
	<path class="st0" d="M-812.2,530.8c-0.1,0.7-0.2,1.4-0.2,2.1c0,3.1,0.9,4.7,3.6,4.7c1.8,0,3.6-1.2,4.9-2.8l0.4,0.4
		c-1.9,2.4-4,3.5-6.4,3.5c-2.7,0-5.6-1.5-5.6-5.7c0-5.1,4.2-10.5,9.4-10.5c2.9,0,4.3,1.4,4.3,3.4
		C-801.6,528.4-805,530.8-812.2,530.8z M-812.1,530.3c6.7-0.2,7.8-2.9,7.8-5.2c0-1.4-0.8-2-1.8-2
		C-808.7,523.1-811.3,526.5-812.1,530.3z"/>
	<path class="st0" d="M-792.5,537.9c3.6-0.2,4.6-0.4,5-2.1l4.3-16.3c0.6-2.1,0.3-2.8-3.7-2.9l0.1-0.4l7.9-0.6l-5.5,20.3
		c-0.4,1.6,0.2,1.9,3.9,2.1l-0.1,0.4h-12L-792.5,537.9z"/>
	<path class="st0" d="M-756.6,522.5c0,9.1-7.4,15.3-18.3,16.4v-0.5c9.6-1.9,12.9-6.7,14.2-11.3l-0.1-0.1c-1.7,2.5-3.9,3.7-6.3,3.7
		c-3.8,0-5.7-2.6-5.7-6c0-4.5,4-9.6,9.7-9.6C-758.8,515.2-756.6,518.5-756.6,522.5z M-769.5,525.7c0,3.1,1.2,4.3,3.2,4.3
		c2.9,0,6.7-3.4,6.7-9.2c0-2.7-1.1-4.9-3.6-4.9C-767.2,515.9-769.5,521.4-769.5,525.7z"/>
	<path class="st0" d="M-755.7,536.3l8.9-6.5c4.6-3.3,6.1-6.1,6.1-9.5c0-2.7-1.1-4.4-3.6-4.4c-1.8,0-3.6,1.1-4.5,2.5
		c1.2,0.4,1.8,1.3,1.8,2.4c0,1.2-0.9,2.3-2.2,2.3c-1.3,0-2.2-0.9-2.2-2.4c0-2.9,3.4-5.5,7.4-5.5c4.1,0,6.7,2.2,6.7,5.1
		c0,3.1-2.2,5.3-10.8,11.3l-5.5,3.9v0.1h8.2c2.7,0,3.5-0.6,5.4-3.7h0.4l-1.8,6.3h-14.8L-755.7,536.3z"/>
	<path class="st0" d="M-735.5,536.3l8.9-6.5c4.6-3.3,6.1-6.1,6.1-9.5c0-2.7-1.1-4.4-3.6-4.4c-1.8,0-3.6,1.1-4.5,2.5
		c1.2,0.4,1.8,1.3,1.8,2.4c0,1.2-0.9,2.3-2.2,2.3s-2.2-0.9-2.2-2.4c0-2.9,3.4-5.5,7.4-5.5c4.1,0,6.7,2.2,6.7,5.1
		c0,3.1-2.2,5.3-10.8,11.3l-5.5,3.9v0.1h8.2c2.7,0,3.5-0.6,5.4-3.7h0.4l-1.8,6.3H-736L-735.5,536.3z"/>
</g>
</svg>
